<svg xmlns="http://www.w3.org/2000/svg" viewBox="0 0 750 500"><g id="freepik--background-complete--inject-119"><path d="M15.31,297.1S7.67,300,16,316.26s14.17,24.33,14.17,24.33,1.48,3.78-1.7,4.38-10.2-.5-11.61,3.4c-1.46,4.05,1.49,7.85,7.46,11.18s18.77,11.09,19.92,11.8,2.28,2.45.17,3.2S26.58,377,27.83,384.44s19.4,14,21.37,14.72,2.44,1.59,2.28,2.67-5.51,1.15-10,1.82-9.53,2.22-8.45,6.45S44.91,423.19,71,425.65l12.15.36,6.58-10.29c12.74-22.88,11.54-36.77,8.66-40.06s-7,0-10.1,3.3-6.17,7.68-7.15,7.19-1.4-1.34-.9-3.39,5.39-20.7,0-25.94-15.75,6.78-17.56,8.09-2.62-.63-2.55-2,.93-16.3,1.57-23.1-.83-11.39-5-12.48c-4-1.05-7.08,5.35-9.38,7.64s-4.57-1.08-4.57-1.08-3.35-9.34-12-25.45-15.53-11.32-15.53-11.32" style="fill:#f5f5f5"></path><path d="M83.77,428.86C77.45,417,66.58,395.73,57.15,377.51s-18-34.68-24.24-46.58l-7.43-14.07-2-3.83L23,312c-.11-.23-.16-.35-.16-.35l.2.33.54,1c.49.88,1.19,2.16,2.08,3.8,1.8,3.3,4.38,8.09,7.53,14,6.32,11.86,14.91,28.32,24.34,46.53s20.27,39.5,26.53,51.4" style="fill:#e0e0e0"></path><path d="M26.66,350.3a3.66,3.66,0,0,1,.85.23c.54.17,1.31.44,2.26.79,1.9.69,4.5,1.71,7.34,2.88l7.28,3,2.21.91a4.06,4.06,0,0,1,.8.36,3.66,3.66,0,0,1-.85-.23c-.54-.17-1.31-.44-2.26-.79-1.89-.71-4.47-1.76-7.32-2.94l-7.3-3-2.21-.9A4.38,4.38,0,0,1,26.66,350.3Z" style="fill:#e0e0e0"></path><path d="M48.23,357.73c-.1,0,1.77-5.48,4.17-12.17s4.42-12.08,4.52-12.05-1.77,5.49-4.17,12.18S48.33,357.77,48.23,357.73Z" style="fill:#e0e0e0"></path><path d="M61.45,386.35a5,5,0,0,1,.49-.75l1.43-2c1.21-1.66,2.87-4,4.6-6.59s3.24-5,4.31-6.8l1.27-2.09a4.29,4.29,0,0,1,.5-.74,4.29,4.29,0,0,1-.38.82c-.26.51-.65,1.25-1.16,2.14-1,1.8-2.47,4.25-4.22,6.88s-3.44,4.91-4.7,6.54c-.64.82-1.16,1.47-1.53,1.91A3.77,3.77,0,0,1,61.45,386.35Z" style="fill:#e0e0e0"></path><path d="M40.46,383.92a4.07,4.07,0,0,1,.83,0l2.25.18c1.9.16,4.52.4,7.41.7s5.5.59,7.39.82l2.24.29a3.89,3.89,0,0,1,.82.15,3.34,3.34,0,0,1-.83,0l-2.25-.17c-1.9-.16-4.52-.41-7.41-.7s-5.51-.59-7.4-.82l-2.24-.29A3.43,3.43,0,0,1,40.46,383.92Z" style="fill:#e0e0e0"></path><path d="M48.92,410.67a7.08,7.08,0,0,1,1.06,0l2.89.2c2.43.2,5.79.49,9.5.83s7.06.68,9.49.94l2.87.33a7.33,7.33,0,0,1,1,.17,5,5,0,0,1-1.06,0l-2.88-.21c-2.44-.19-5.8-.49-9.51-.83s-7.06-.68-9.49-.94L50,410.84A4.92,4.92,0,0,1,48.92,410.67Z" style="fill:#e0e0e0"></path><path d="M75.16,412.93a5.92,5.92,0,0,1,.59-1c.45-.66,1-1.52,1.73-2.57,1.46-2.17,3.46-5.17,5.57-8.55s4-6.49,5.27-8.75c.63-1.08,1.15-2,1.56-2.67a7.51,7.51,0,0,1,.6-1,5,5,0,0,1-.48,1c-.33.65-.82,1.58-1.45,2.73-1.26,2.3-3.06,5.43-5.18,8.82s-4.16,6.37-5.67,8.51c-.76,1.06-1.38,1.92-1.83,2.5A6.55,6.55,0,0,1,75.16,412.93Z" style="fill:#e0e0e0"></path><path d="M289.67,156.32c.81-5.86-7.46-10.68-13.67-11.18-3-.24-6,.22-8.85-.76-6.08-2.12-8.51-10-14.44-12.48-4.44-1.87-9.54-.2-13.84,2s-8.55,4.89-13.36,5.2c-4.18.26-8.71-1.29-12.37.76-2.73,1.52-4.15,4.66-6.66,6.51s-5.67,2.19-8.71,2.36-6.21.2-9,1.47-5.07,4.2-4.5,7.2Z" style="fill:#ebebeb"></path><path d="M467.87,85.06c1.07-7.79-9.92-14.2-18.17-14.86-3.94-.32-8,.28-11.76-1-8.09-2.82-11.32-13.26-19.2-16.59-5.9-2.48-12.69-.27-18.4,2.61S389,61.7,382.58,62.11c-5.55.35-11.58-1.71-16.44,1-3.63,2-5.52,6.2-8.86,8.66s-7.53,2.92-11.58,3.14-8.25.26-11.94,2-6.74,5.59-6,9.58Z" style="fill:#f5f5f5"></path><path d="M550.22,159.87C551,154.2,543,149.54,537,149.05c-2.86-.23-5.84.21-8.56-.74-5.89-2.05-8.24-9.65-14-12.08-4.3-1.81-9.24-.19-13.4,1.9s-8.28,4.73-12.93,5c-4,.26-8.44-1.24-12,.74-2.63,1.47-4,4.51-6.45,6.3s-5.48,2.13-8.43,2.29-6,.19-8.69,1.42-4.91,4.07-4.35,7Z" style="fill:#f5f5f5"></path><path d="M692.23,97.46c.73-5.34-6.8-9.73-12.46-10.19-2.7-.21-5.51.2-8.07-.69-5.54-1.93-7.75-9.09-13.16-11.37-4-1.71-8.7-.19-12.61,1.78s-7.8,4.46-12.18,4.74c-3.8.24-7.94-1.17-11.27.69-2.49,1.38-3.79,4.25-6.08,5.93s-5.15,2-7.93,2.16-5.66.18-8.19,1.33-4.62,3.84-4.09,6.57Z" style="fill:#ebebeb"></path></g><g id="freepik--Car--inject-119"><path d="M590.45,281.58s-1.42,6-8.68,6.47-19.33.53-19.33.53l-10-4.63-3.75-13.73,11.19,5.09Z" style="fill:#263238"></path><path d="M590.45,281.58s5.4-8.88-4.81-14.53S559,265.77,559,265.77l1.46,16.59Z" style="fill:#5CA4E6"></path><rect x="537.36" y="362.68" width="43.82" height="103.13" rx="19.76" style="fill:#263238"></rect><rect x="268.25" y="362.68" width="43.82" height="103.13" rx="19.76" style="fill:#263238"></rect><path d="M281.09,427.3s-15-28.77-15.49-62.85,4-47.8,11.95-54.44,16.82-21.25,16.82-21.25,9.09-36.09,21.69-59.31c11.5-21.19,32.75-19,32.75-19s93.39-8.37,151.82-.2c0,0,15.93-1.13,27.44,16.58s24.34,48.68,27.44,64.62c0,0,13.72,13.28,17.71,19.47s11.06,17.26,10.18,27.89-.45,70.37-15,90.29Z" style="fill:#5CA4E6"></path><path d="M307.44,272.41s8.63-41.5,20.32-48.35,95.71-6.55,95.71-6.55l81.44,2.31s14.31.41,18.95,8.07,18.14,43.94,16.52,46.56L415,275.86s-88.28,1.61-91.9.8S308.21,276.89,307.44,272.41Z" style="fill:#263238"></path><path d="M321.89,272.41s-7.64-1.12-6.65-9.5c.77-6.5,8.54-24.67,12-32.46a7.07,7.07,0,0,1,5.57-4.16c10.56-1.36,37.28-5.83,84.83-5.41,60.6.53,97.63,1.64,101,6,2.68,3.47,13.07,31.21,14.28,35.28,1.4,4.71-5,9.95-14.08,10.2S321.89,272.41,321.89,272.41Z" style="fill:#455a64"></path><g style="opacity:0.4"><path d="M505.74,364.51c-6.93-12.88-25.87-11-25.87-11s-97.62-.33-107.91,0-12.95.38-19.26,7-25.59,46.07-25.59,46.07H525.66S513.59,379.11,505.74,364.51Z"></path></g><rect x="370.85" y="372.15" width="1.33" height="1.33" style="fill:none"></rect><path d="M350,314.6l5.07,11.69s2.15,4.54,11,5.26c6.92.55,119.62.52,119.62.52s7.5.66,10.44-4.56a117.16,117.16,0,0,0,5.87-12.91Z" style="fill:#263238"></path><path d="M280.82,329.6a140.51,140.51,0,0,1,.84-15.49c.32-2.18,4.49-10,16.75-11.32,3.19-.35,5.92-.51,8.21-.57a27.55,27.55,0,0,1,21.18,8.92,24.3,24.3,0,0,1,4.34,6.71c4.38,10.34,6.57,23,6.57,23Z" style="fill:#eaeaea"></path><g style="opacity:0.30000000000000004"><path d="M281.74,329.6h-.92s-3.14,9.47,4.21,13.53c4.85,2.68,21.15,5.32,31.67,6.8a21.4,21.4,0,0,0,16.43-4.54l5.58-4.5Z"></path></g><path d="M331.63,221.75s2.77-12.05,6.67-16.08,8.49-3.92,11.07-2.53c2.3,1.24,5.63,6.77,5.63,6.77l-6.41.47a3.49,3.49,0,0,0-3.82-1.58c-2.32.66-3.92,4.93-3.92,4.93l-2.77,7Z" style="fill:#e0e0e0"></path><path d="M510.88,220.85s-2.77-12-6.67-16.08-8.49-3.92-11.07-2.53c-2.3,1.24-5.63,6.77-5.63,6.77l6.41.48a3.49,3.49,0,0,1,3.82-1.59c2.32.66,3.92,4.93,3.92,4.93l2.77,7Z" style="fill:#e0e0e0"></path><path d="M495.66,309.27c0,.15-32.8.26-73.26.26s-73.26-.11-73.26-.26,32.79-.26,73.26-.26S495.66,309.13,495.66,309.27Z" style="fill:#263238"></path><g style="opacity:0.30000000000000004"><path d="M280.15,368.52s-.64,23.29,12.32,24.45l8.8.83a10.9,10.9,0,0,0,10.22-5l8-12.56Z"></path></g><g style="opacity:0.30000000000000004"><path d="M272.84,406.6l304.32-.19c-1.73,8.41-4.5,16.09-8.81,22.66L281.09,427.3A149.89,149.89,0,0,1,272.84,406.6Z"></path></g><path d="M257.49,281.58s1.41,6,8.68,6.47,19.33.53,19.33.53l10.06-4.3,4.16-14.06-11.65,5.09Z" style="fill:#263238"></path><path d="M257.49,281.58s-5.4-8.88,4.8-14.53,26.61-1.28,26.61-1.28l-1.45,16.59Z" style="fill:#5CA4E6"></path><rect x="375.83" y="367.17" width="99.26" height="21.58" rx="9.73" style="fill:#eaeaea"></rect><path d="M308.65,272.65c.06.1-1.78,1.06-4.32,3.18a26.8,26.8,0,0,0-2,1.83c-.72.67-1.38,1.47-2.1,2.28a37.54,37.54,0,0,0-3.92,5.9,35.75,35.75,0,0,0-2.6,6.6,30.3,30.3,0,0,0-.67,3,24,24,0,0,0-.37,2.67c-.29,3.3,0,5.36-.14,5.36a6.59,6.59,0,0,1-.2-1.43,13.94,13.94,0,0,1-.08-1.7,19.54,19.54,0,0,1,.05-2.25,23.89,23.89,0,0,1,.31-2.72,30.84,30.84,0,0,1,.64-3.08,34.78,34.78,0,0,1,2.59-6.71,35.4,35.4,0,0,1,4-6,30.19,30.19,0,0,1,2.16-2.29,22.82,22.82,0,0,1,2.06-1.8,20.87,20.87,0,0,1,1.82-1.34,13.26,13.26,0,0,1,1.44-.9A8,8,0,0,1,308.65,272.65Z" style="fill:#263238"></path><path d="M508.08,340.89c0,.15-37.76.34-84.32.43s-84.34.05-84.34-.1,37.75-.33,84.34-.42S508.08,340.75,508.08,340.89Z" style="fill:#263238"></path><path d="M438.92,228.45c.07.12-13.53,8.29-30.37,18.23S378,264.59,377.92,264.46s13.52-8.28,30.37-18.23S438.84,228.33,438.92,228.45Z" style="fill:#e0e0e0"></path><path d="M410.63,231.33c.08.12-10,6.7-22.49,14.7s-22.7,14.38-22.77,14.26,10-6.7,22.49-14.7S410.56,231.21,410.63,231.33Z" style="fill:#e0e0e0"></path><path d="M453.84,229.83c.08.12-8.91,6.25-20.07,13.68s-20.28,13.37-20.36,13.25,8.9-6.24,20.07-13.68S453.76,229.71,453.84,229.83Z" style="fill:#e0e0e0"></path><path d="M577.16,406.41c0,.14-68.13.3-152.15.35s-152.17,0-152.17-.16,68.11-.3,152.17-.36S577.16,406.27,577.16,406.41Z" style="fill:#263238"></path><path d="M554.36,309.29a12.42,12.42,0,0,1,.41-1.62,39.76,39.76,0,0,0,1-4.44,30,30,0,0,0,.32-6.7,21.9,21.9,0,0,0-1.87-7.93,33.52,33.52,0,0,0-4.46-6.89A30.51,30.51,0,0,0,545,277,12.13,12.13,0,0,0,541,274.8a5.4,5.4,0,0,0-1.19-.26,1.6,1.6,0,0,1-.42-.09s.14,0,.43,0a4.5,4.5,0,0,1,1.24.18,11.6,11.6,0,0,1,4.08,2.08,29.56,29.56,0,0,1,4.92,4.71,32.77,32.77,0,0,1,4.56,7A16.06,16.06,0,0,1,556,292.5a27.37,27.37,0,0,1,.51,4,28.58,28.58,0,0,1-.42,6.79,33.12,33.12,0,0,1-1.13,4.44c-.17.51-.32.9-.42,1.17S554.38,309.3,554.36,309.29Z" style="fill:#263238"></path><path d="M566,329.6a138.87,138.87,0,0,0-.85-15.49c-.31-2.18-4.48-10-16.75-11.32-3.18-.35-5.91-.51-8.2-.57A27.53,27.53,0,0,0,519,311.14a24.33,24.33,0,0,0-4.35,6.71c-4.38,10.34-6.57,23-6.57,23Z" style="fill:#eaeaea"></path><g style="opacity:0.30000000000000004"><path d="M565.05,329.6H566s3.13,9.47-4.22,13.53c-4.85,2.68-21.15,5.32-31.67,6.8a21.41,21.41,0,0,1-16.43-4.54l-5.58-4.5Z"></path></g><g style="opacity:0.30000000000000004"><path d="M566.64,368.52s.65,23.29-12.31,24.45l-8.81.83a10.92,10.92,0,0,1-10.22-5l-8-12.56Z"></path></g></g><g id="freepik--Character--inject-119"><path d="M689.32,321.29c-.23.66-.51,1.43-.88,2.32a7.87,7.87,0,0,1-1.34,2.08,11.43,11.43,0,0,1-2.3,2.05,1,1,0,0,0,.15,1.8c.85.12,3.19-1.05,5-3.48s2,2.38,2.1,4.13.61,7.15,1.17,7.55c.82.59,1.6-.18,1.47-1.93s-.14-7,.78-7,1.24,8.91,1.24,8.91-.24,1.92.83,2c1.93.06.89-9.4.77-10.29-.08-.63.92-.67,1,0s.11,8.9,2.08,9c1.5.07-.79-7.78.15-9.49s1.13,6.13,2.57,6.13c.54,0,.94-.08.18-4.56-.37-2.18-1.56-12.29-1.56-12.29l2.71-7.73-11.63-4.88Z" style="fill:#263238"></path><path d="M695.45,228.68s7.79,5.44,9.29,13.22c1.08,5.56,3.53,41.29,3.53,41.29s2.12,10.5,2.33,13.89-3.37,11-3.37,11l-1.64,8-7.2.44-6.88-18.72Z" style="fill:#455a64"></path><polygon points="714.79 446.28 719.67 464.36 703.78 465.81 700.45 448.6 714.79 446.28" style="fill:#5CA4E6"></polygon><path d="M703.32,464.34a11,11,0,0,0,2.33-.08c1.43-.11,3.4-.33,5.58-.61l5.55-.75a13.88,13.88,0,0,0,2.29-.39,10.92,10.92,0,0,0-2.33.08c-1.43.12-3.4.34-5.57.62l-5.55.74A13.17,13.17,0,0,0,703.32,464.34Z" style="fill:#263238"></path><g style="opacity:0.6000000000000001"><polyline points="719.67 464.36 703.78 465.81 703.53 464.49 719.22 462.49 719.66 464.18" style="fill:#fff"></polyline></g><path d="M711.78,463.56a68.33,68.33,0,0,0-1.51-6.93,67.3,67.3,0,0,0-1.87-6.84,65.19,65.19,0,0,0,1.51,6.93A67.3,67.3,0,0,0,711.78,463.56Z" style="fill:#263238"></path><path d="M704.2,464.22a7.76,7.76,0,0,1,0-3.36,6.73,6.73,0,0,1,1.73-3.14,6.51,6.51,0,0,1,4-1.82,6.75,6.75,0,0,1,4.25,1,7.3,7.3,0,0,1,2.48,2.63,9.34,9.34,0,0,1,1,3.22s0-.08,0-.24,0-.39,0-.69a7.38,7.38,0,0,0-3.28-5.21,7,7,0,0,0-4.48-1.05,6.54,6.54,0,0,0-5.91,5.27,6.29,6.29,0,0,0,0,2.54,4.19,4.19,0,0,0,.2.66C704.15,464.15,704.19,464.23,704.2,464.22Z" style="fill:#263238"></path><path d="M649.18,441.43l1.06,16.06s-16,5.31-16.08,8.3l31.24.22-.63-25.09Z" style="fill:#5CA4E6"></path><g style="opacity:0.6000000000000001"><path d="M659.85,455.85a1.28,1.28,0,0,1,.93,1.43,1.24,1.24,0,0,1-1.41.93,1.35,1.35,0,0,1-1-1.52,1.26,1.26,0,0,1,1.57-.8" style="fill:#fff"></path></g><g style="opacity:0.6000000000000001"><path d="M665.4,466l-.07-2.53-30.16.84A2.13,2.13,0,0,0,634,466Z" style="fill:#fff"></path></g><path d="M649.73,457.35c0,.15.78.2,1.54.67s1.18,1.09,1.32,1-.11-.94-1.05-1.49S649.69,457.21,649.73,457.35Z" style="fill:#263238"></path><path d="M646.5,458.8c0,.15.64.39,1.17,1s.71,1.31.86,1.3.22-.88-.46-1.65S646.5,458.66,646.5,458.8Z" style="fill:#263238"></path><path d="M644.76,462.78c.14,0,.33-.74-.09-1.56s-1.14-1.14-1.2-1,.39.56.72,1.24S644.61,462.77,644.76,462.78Z" style="fill:#263238"></path><path d="M649.89,453.66c.07.14.77-.09,1.63-.06s1.54.29,1.62.15-.59-.65-1.61-.68S649.82,453.55,649.89,453.66Z" style="fill:#263238"></path><g style="opacity:0.30000000000000004"><polygon points="649.39 444.61 649.58 447.48 664.91 446.87 664.86 444.29 649.39 444.61"></polygon></g><path d="M649.74,450.42a2.93,2.93,0,0,0,1.56-.06,6.6,6.6,0,0,0,1.62-.55,9,9,0,0,0,.89-.5,2.14,2.14,0,0,0,.46-.38.67.67,0,0,0,0-.82.81.81,0,0,0-.68-.32,2,2,0,0,0-.58.09,5.47,5.47,0,0,0-1,.37,5.3,5.3,0,0,0-1.41,1c-.71.69-.94,1.27-.89,1.29s.41-.44,1.13-1a6.06,6.06,0,0,1,1.37-.83,6.2,6.2,0,0,1,.89-.3c.33-.1.61-.11.7,0s0,.08,0,.18a1.75,1.75,0,0,1-.34.28,8.88,8.88,0,0,1-.81.5,9.15,9.15,0,0,1-1.49.62A11.31,11.31,0,0,0,649.74,450.42Z" style="fill:#263238"></path><path d="M649.94,450.63c.06,0,.35-.53.37-1.52a5.35,5.35,0,0,0-.26-1.71,5.52,5.52,0,0,0-.43-.93,1.28,1.28,0,0,0-1-.76.73.73,0,0,0-.64.45,2,2,0,0,0-.14.58,3.39,3.39,0,0,0,0,1.06,3.49,3.49,0,0,0,.71,1.59c.64.79,1.28.95,1.29.9s-.49-.36-1-1.12a3.6,3.6,0,0,1-.54-1.45,3.46,3.46,0,0,1,0-.91c0-.33.16-.6.28-.57s.43.23.56.49a5.49,5.49,0,0,1,.42.84,5.94,5.94,0,0,1,.35,1.55C650,450,649.86,450.61,649.94,450.63Z" style="fill:#263238"></path><polygon points="649.18 301.91 696.76 301.55 719.76 452.58 700.01 455.09 674.7 330.9 667.12 455.53 667.1 455.9 645.75 455.53 649.18 301.91" style="fill:#263238"></polygon><path d="M670.82,314.15l-1.07,0h-2.91l-10.16-.08.23-.22c0,3,0,6.32,0,9.86l-.07-.18,1.79,1.65,5.27,4.85h-.32l7.09-6.2-.06.14c0-2.94.08-5.37.1-7.13,0-.81,0-1.47,0-2a5.43,5.43,0,0,1,0-.72,2.68,2.68,0,0,1,0,.65c0,.5,0,1.15,0,1.94,0,1.8.06,4.26.1,7.25v.08l-.07.06-7,6.28-.16.15-.16-.15-5.28-4.84-1.79-1.65-.08-.07v-.11c0-3.54,0-6.88,0-9.86v-.23h.22L667,314l2.86.12A6.13,6.13,0,0,1,670.82,314.15Z" style="fill:#455a64"></path><path d="M693.22,313.49a7.86,7.86,0,0,1-1,.15l-2.6.32-9.1,1,.19-.24c.36,2.91.78,6.24,1.23,9.78l-.09-.16L684,326c1.75,1.39,3.44,2.75,5,4l-.34,0,5.6-6.94,0,.15c-.32-2.92-.57-5.32-.76-7.08-.08-.81-.15-1.47-.2-2a5.48,5.48,0,0,1,0-.73,4.73,4.73,0,0,1,.12.64c.07.51.17,1.15.29,1.94.24,1.78.57,4.22,1,7.17v.08l0,.07-5.53,7-.15.19-.19-.15-5.06-4-2-1.63-.08-.07v-.1c-.43-3.54-.82-6.87-1.17-9.79l0-.22.22,0,9.27-.83,2.55-.2A5.84,5.84,0,0,1,693.22,313.49Z" style="fill:#455a64"></path><path d="M664.1,336.42a10.79,10.79,0,0,1,2-1.34c1.27-.76,3.06-1.76,5.09-2.77s3.9-1.84,5.27-2.4a10.52,10.52,0,0,1,2.27-.79,12.9,12.9,0,0,1-2.13,1.11c-1.33.64-3.17,1.52-5.19,2.53s-3.83,1.95-5.14,2.63A12.31,12.31,0,0,1,664.1,336.42Z" style="fill:#455a64"></path><path d="M664.72,340.08a26.87,26.87,0,0,0,4.69-3.4,28.36,28.36,0,0,0,3.47-4.63,12.72,12.72,0,0,1-8.16,8Z" style="fill:#455a64"></path><path d="M651.28,383.72c.09,0,.44,1.09,1.49,2.61a12.39,12.39,0,0,0,12.48,5.27c1.82-.31,2.87-.84,2.9-.76s-.23.19-.71.41a10.29,10.29,0,0,1-2.12.69,12,12,0,0,1-12.85-5.42,9.9,9.9,0,0,1-1-2A2.26,2.26,0,0,1,651.28,383.72Z" style="fill:#455a64"></path><path d="M654.41,382.44a12.68,12.68,0,0,1,1.91.48,22.94,22.94,0,0,0,4.66.64c3.69.13,6.67-.43,6.7-.27a6.84,6.84,0,0,1-1.93.47,24.56,24.56,0,0,1-4.79.29,17.7,17.7,0,0,1-4.74-.79A5.5,5.5,0,0,1,654.41,382.44Z" style="fill:#455a64"></path><path d="M689.79,383.34a33.23,33.23,0,0,0,6.56,3.63,32.14,32.14,0,0,0,7.34,1.54,6.77,6.77,0,0,1-2.23.07,18.93,18.93,0,0,1-10-3.73A7.13,7.13,0,0,1,689.79,383.34Z" style="fill:#455a64"></path><path d="M694,383.15c0-.15,2,.09,4.33-.1s4.24-.73,4.29-.58a10.12,10.12,0,0,1-4.25,1.07A10,10,0,0,1,694,383.15Z" style="fill:#455a64"></path><path d="M675,331.94a45.55,45.55,0,0,0,15.63,2.51,8.74,8.74,0,0,1-2.34.27,29.25,29.25,0,0,1-5.66-.35,28.75,28.75,0,0,1-5.49-1.44A8.38,8.38,0,0,1,675,331.94Z" style="fill:#455a64"></path><path d="M676.28,326.84c.14,0,.25.42.24,1s-.12.95-.26.95-.24-.43-.24-1S676.15,326.83,676.28,326.84Z" style="fill:#455a64"></path><path d="M676.27,323c.13,0,.25.43.25,1s-.1,1-.23,1-.26-.43-.26-.95S676.13,323,676.27,323Z" style="fill:#455a64"></path><path d="M676.17,319.21c.14,0,.26.42.28,1s-.08.95-.22,1-.26-.42-.28-.95S676,319.22,676.17,319.21Z" style="fill:#455a64"></path><path d="M676,315.4c.13,0,.27.42.29.94s-.06,1-.19,1-.27-.42-.3-.94S675.85,315.41,676,315.4Z" style="fill:#455a64"></path><path d="M675.72,311.6c.14,0,.28.41.32.93s0,1-.18,1-.28-.41-.32-.93S675.58,311.61,675.72,311.6Z" style="fill:#455a64"></path><path d="M675.37,307.81c.13,0,.29.4.34.92s0,1-.16,1-.29-.4-.34-.92S675.23,307.82,675.37,307.81Z" style="fill:#455a64"></path><path d="M702.21,451.55c.13,0,.32.37.43.88s.07,1-.06,1-.33-.37-.43-.88S702.07,451.57,702.21,451.55Z" style="fill:#455a64"></path><path d="M701.46,447.81c.13,0,.32.37.43.88s.08,1-.06,1-.33-.37-.43-.89S701.32,447.83,701.46,447.81Z" style="fill:#455a64"></path><path d="M700.71,444.07c.13,0,.33.37.43.89s.08,1-.06,1-.32-.37-.43-.89S700.58,444.1,700.71,444.07Z" style="fill:#455a64"></path><path d="M700,440.33c.14,0,.33.37.43.89s.08.95,0,1-.33-.37-.43-.89S699.83,440.36,700,440.33Z" style="fill:#455a64"></path><path d="M699.21,436.59c.14,0,.33.37.43.89s.08,1,0,1-.33-.37-.43-.88S699.08,436.62,699.21,436.59Z" style="fill:#455a64"></path><path d="M698.47,432.86c.13,0,.32.37.43.88s.07,1-.06,1-.33-.36-.43-.88S698.33,432.88,698.47,432.86Z" style="fill:#455a64"></path><path d="M697.72,429.12c.13,0,.33.37.43.88s.08,1-.06,1-.32-.37-.43-.89S697.58,429.15,697.72,429.12Z" style="fill:#455a64"></path><path d="M697,425.38c.14,0,.33.37.43.89s.08,1,0,1-.33-.37-.44-.89S696.84,425.41,697,425.38Z" style="fill:#455a64"></path><path d="M696.22,421.64c.14,0,.33.37.43.89s.08,1,0,1-.33-.37-.43-.88S696.09,421.67,696.22,421.64Z" style="fill:#455a64"></path><path d="M695.48,417.9c.13,0,.32.37.43.89s.07,1-.06,1-.33-.37-.43-.88S695.34,417.93,695.48,417.9Z" style="fill:#455a64"></path><path d="M694.73,414.17c.13,0,.32.37.43.88s.08,1-.06,1-.33-.37-.43-.89S694.59,414.19,694.73,414.17Z" style="fill:#455a64"></path><path d="M694,410.43c.13,0,.33.37.43.88s.08,1-.06,1-.32-.37-.43-.89S693.85,410.46,694,410.43Z" style="fill:#455a64"></path><path d="M693.23,406.69c.14,0,.33.37.43.89s.08.95,0,1-.33-.37-.43-.89S693.1,406.72,693.23,406.69Z" style="fill:#455a64"></path><path d="M692.48,403c.14,0,.33.37.43.89s.08,1,0,1-.33-.37-.43-.88S692.35,403,692.48,403Z" style="fill:#455a64"></path><path d="M691.74,399.22c.13,0,.32.36.43.88s.08,1-.06,1-.33-.37-.43-.88S691.6,399.24,691.74,399.22Z" style="fill:#455a64"></path><path d="M691,395.48c.13,0,.33.37.43.88s.08,1-.06,1-.32-.37-.43-.89S690.85,395.5,691,395.48Z" style="fill:#455a64"></path><path d="M690.24,391.74c.14,0,.33.37.43.89s.08.95,0,1-.33-.37-.43-.89S690.11,391.77,690.24,391.74Z" style="fill:#455a64"></path><path d="M689.49,388c.14,0,.33.37.43.89s.08.95,0,1-.33-.37-.43-.89S689.36,388,689.49,388Z" style="fill:#455a64"></path><path d="M688.75,384.26c.13,0,.32.37.43.89s.07,1-.06,1-.33-.37-.43-.88S688.61,384.29,688.75,384.26Z" style="fill:#455a64"></path><path d="M688,380.53c.13,0,.33.37.43.88s.08,1-.06,1-.32-.36-.43-.88S687.86,380.55,688,380.53Z" style="fill:#455a64"></path><path d="M687.25,376.79c.13,0,.33.37.43.88s.08,1-.06,1-.32-.37-.43-.89S687.12,376.81,687.25,376.79Z" style="fill:#455a64"></path><path d="M686.5,373.05c.14,0,.33.37.43.89s.08.95,0,1-.33-.37-.43-.89S686.37,373.08,686.5,373.05Z" style="fill:#455a64"></path><path d="M685.75,369.31c.14,0,.33.37.44.89s.07.95-.06,1-.33-.37-.43-.88S685.62,369.34,685.75,369.31Z" style="fill:#455a64"></path><path d="M685,365.57c.13,0,.32.37.43.89s.08,1-.06,1-.33-.37-.43-.88S684.87,365.6,685,365.57Z" style="fill:#455a64"></path><path d="M684.26,361.84c.13,0,.33.37.43.88s.08,1-.06,1-.32-.37-.43-.89S684.13,361.86,684.26,361.84Z" style="fill:#455a64"></path><path d="M683.51,358.1c.14,0,.33.37.43.88s.08,1-.05,1-.33-.37-.43-.89S683.38,358.13,683.51,358.1Z" style="fill:#455a64"></path><path d="M682.76,354.36c.14,0,.33.37.43.89s.08.95-.05,1-.33-.37-.43-.89S682.63,354.39,682.76,354.36Z" style="fill:#455a64"></path><path d="M682,350.62c.13,0,.32.37.43.89s.07,1-.06,1-.33-.37-.43-.88S681.88,350.65,682,350.62Z" style="fill:#455a64"></path><path d="M681.27,346.89c.13,0,.33.36.43.88s.08,1-.06,1-.32-.37-.43-.88S681.13,346.91,681.27,346.89Z" style="fill:#455a64"></path><path d="M680.52,343.15c.14,0,.33.37.43.88s.08,1-.06,1-.32-.37-.43-.89S680.39,343.17,680.52,343.15Z" style="fill:#455a64"></path><path d="M679.77,339.41c.14,0,.33.37.43.89s.08.95-.05,1-.33-.37-.43-.89S679.64,339.44,679.77,339.41Z" style="fill:#455a64"></path><path d="M679,335.67c.13,0,.32.37.43.89s.07.95-.06,1-.33-.37-.43-.89S678.89,335.7,679,335.67Z" style="fill:#455a64"></path><path d="M678.38,332.42c.13,0,.3.26.38.64s0,.72-.11.74-.3-.26-.38-.64S678.24,332.45,678.38,332.42Z" style="fill:#455a64"></path><path d="M678,184.54l.12,40.07-17.19.82-.49-9.75s-6.11,1.22-7.69-4.45c-1-3.63-.75-31.62-.75-31.62Z" style="fill:#ffbe9d"></path><path d="M649.72,182.43c2.7.77,3.29,5.2,3.29,5.2l4.25,9.38c2.16-1.69,5.07-1.6,5.62,2.21.4,2.74-3,3.3-3,3.3,2,3.38,3.34,6.12,6.23,9.34,3.14,3.48,4.89,3.84,8.29,3.89h3.75s1.83-5.95,5.23-20.85c3.77-16.52-15.77-14.39-19.39-18.61C658.07,169.43,641.18,180,649.72,182.43Z" style="fill:#263238"></path><path d="M683,196.46c3.17-2.12,3.46-8.08,1.61-11.65a11.48,11.48,0,0,0-9.76-6.06,4.72,4.72,0,0,1-1.59-.18,4.49,4.49,0,0,1-1.71-1.62c-2.83-3.68-5.61-7.3-10.89-7.3a6,6,0,0,0-3.31.82,5.2,5.2,0,0,0-2,2.64,11.15,11.15,0,0,0-3.08-1.11,3.83,3.83,0,0,0-3.1.76,2.32,2.32,0,0,0-.48,3,3.76,3.76,0,0,0-3.75,3.12c-.28,1.76,2.25,3,2.51,3.13,0,0-1.39,2.9,1.91,4.64a4,4,0,0,0,3.26-.25" style="fill:#263238"></path><path d="M670.45,200.32a28.44,28.44,0,0,1,.55,2.94c.36,1.59.89,2.82.77,2.89a5.41,5.41,0,0,1-1.25-2.79A5.53,5.53,0,0,1,670.45,200.32Z" style="fill:#455a64"></path><path d="M668.37,198.35a12.57,12.57,0,0,1,.62,2.84,13.28,13.28,0,0,1,.45,2.88,6.65,6.65,0,0,1-.94-2.79A6.73,6.73,0,0,1,668.37,198.35Z" style="fill:#455a64"></path><path d="M662.42,191.74c0-.05.59.21,1.3.91a9.19,9.19,0,0,1,2,3.25,17.26,17.26,0,0,1,.92,3.71,5.15,5.15,0,0,1,.1,1.58,5.19,5.19,0,0,1-.45-1.51,30.16,30.16,0,0,0-1-3.6,11.32,11.32,0,0,0-1.84-3.19C662.85,192.16,662.37,191.8,662.42,191.74Z" style="fill:#455a64"></path><path d="M660,187.23a17.15,17.15,0,0,0,.27,3.71,17.46,17.46,0,0,0,1.51,3.4,6.49,6.49,0,0,1-1.78-7.11Z" style="fill:#455a64"></path><path d="M680.53,197.24c-.07-.12.36-.48,1-.81s1.12-.5,1.19-.38-.36.48-.95.81S680.6,197.36,680.53,197.24Z" style="fill:#455a64"></path><path d="M672.22,193c.14,0,.4.71.89,1.51s1,1.37.92,1.48-.81-.34-1.34-1.23S672.09,193,672.22,193Z" style="fill:#455a64"></path><path d="M669.67,191.59c.14,0,.5.86,1.15,1.83s1.33,1.66,1.24,1.77-1-.45-1.65-1.5A3.18,3.18,0,0,1,669.67,191.59Z" style="fill:#455a64"></path><path d="M657,174.81s.06-.09.2-.23a4.38,4.38,0,0,1,.65-.52,6,6,0,0,1,3-.92,7.87,7.87,0,0,1,4.47,1.09,10.71,10.71,0,0,1,3.78,4.16,18,18,0,0,1,1.49,3.86l-.35-.14a9,9,0,0,1,7.27-.38,7.77,7.77,0,0,1,1.88,1,2.32,2.32,0,0,1,.57.51,15.3,15.3,0,0,0-2.55-1.25,8.94,8.94,0,0,0-6.94.52l-.27.13-.07-.28a18.6,18.6,0,0,0-1.46-3.75,10.48,10.48,0,0,0-3.59-4,7.64,7.64,0,0,0-4.21-1.14,6.36,6.36,0,0,0-2.88.73C657.3,174.57,657,174.85,657,174.81Z" style="fill:#455a64"></path><path d="M647.93,177a1.54,1.54,0,0,0-.84.56,1.51,1.51,0,0,0-.28,1.11,1.66,1.66,0,0,0,.9,1.17,2.49,2.49,0,0,0,1.84.2,5.63,5.63,0,0,0,2-1,20.55,20.55,0,0,1,2.14-1.49,8.9,8.9,0,0,1,2.68-1,10.87,10.87,0,0,1,5.4.4,13.76,13.76,0,0,1,3.89,2.09,16.66,16.66,0,0,1,2.19,2,3.51,3.51,0,0,1,.67.86,39.83,39.83,0,0,0-3.07-2.58,14.18,14.18,0,0,0-3.82-1.93,10.71,10.71,0,0,0-5.17-.36,9,9,0,0,0-2.53.89,23,23,0,0,0-2.11,1.44,5.9,5.9,0,0,1-2.17,1.05,2.82,2.82,0,0,1-2.1-.29,2,2,0,0,1-1-1.45,1.74,1.74,0,0,1,.41-1.26C647.45,176.85,648,177,647.93,177Z" style="fill:#455a64"></path><path d="M702.93,340.81c-.14,0-1.27-5.23-2.52-11.74s-2.15-11.81-2-11.84,1.27,5.23,2.52,11.74S703.07,340.78,702.93,340.81Z" style="fill:#455a64"></path><path d="M576,249.42s-4.71-2.38-6.77-3.69c-.7-.45-3.12-2.62-4.38-3.76a.52.52,0,0,0-.86.37,4.78,4.78,0,0,0,.55,2.54c.84,1.31,1.3,2.23,1.3,2.23s-8.84-3.86-10-3.38-.84,1.46,0,1.92,5.54,2.85,5.54,2.85-6.89-1.29-7.44-1.32c-1.67-.12-1,1.78-.17,1.93s7.15,2.39,7.15,2.39-7.83-.6-8.14.12c-.48,1.11.52,1.57,1.14,1.64s6.91,1.21,6.91,1.21,1.24.59.4.74-5-.33-5.91.09c-.31.15-1,1.23,1,1.43,1.1.11,11.08,2.38,18.24,2.23Z" style="fill:#263238"></path><path d="M575.45,248.39l-.89,12.1,3.5,1s1.07,2.66,5.13,3.86,30.61,5.13,53.86-5.44c15.62-7.1,18.32-11.26,18.32-11.26s2.3-19.35-7.66-22.19l-12,2.9-7.87,7.73-5.55-1.9L590.17,246.1l-10.11,2.71Z" style="fill:#455a64"></path><path d="M635.74,229.33a15.42,15.42,0,0,1-1.93,2.26,68.78,68.78,0,0,1-5.15,5,45.6,45.6,0,0,1-5.76,4.31,12.51,12.51,0,0,1-2.62,1.41,24.82,24.82,0,0,1,2.42-1.72,66.31,66.31,0,0,0,5.62-4.39c2.1-1.83,3.91-3.59,5.23-4.87A17.61,17.61,0,0,1,635.74,229.33Z" style="fill:#263238"></path><path d="M620.41,260.3a3.13,3.13,0,0,1-.93.18c-.61.08-1.49.15-2.59.18a37.14,37.14,0,0,1-16.6-3.46A25.23,25.23,0,0,1,598,256a3.15,3.15,0,0,1-.79-.53c0-.08,1.23.56,3.23,1.4a43.36,43.36,0,0,0,16.45,3.43C619.06,260.32,620.4,260.22,620.41,260.3Z" style="fill:#263238"></path><path d="M646,299.75s-.53,3.78-1.16,8.06c-.51,3.4-.66,8.05,3,9.66,0,0,44-1,50.36-.58,5,.34,1.6-13.85,1.6-13.85Z" style="fill:#455a64"></path><path d="M683.16,314.13a10.45,10.45,0,0,1-1.09-3.84,10.21,10.21,0,0,1-.08-4,30.45,30.45,0,0,1,.59,3.91A28,28,0,0,1,683.16,314.13Z" style="fill:#263238"></path><path d="M686.16,311.9a19.75,19.75,0,0,1-1.93-6.06,10.06,10.06,0,0,1,1.22,3A9.86,9.86,0,0,1,686.16,311.9Z" style="fill:#263238"></path><path d="M700.29,304.87c.09,0,.09.76.37,1.91a17.68,17.68,0,0,1,.89,4.7,6.78,6.78,0,0,1-.47,2.64,5.22,5.22,0,0,1-1.22,1.83,2.76,2.76,0,0,1-1.76.94,9.23,9.23,0,0,0,1.49-1.19,6.06,6.06,0,0,0,1.44-4.22,24.08,24.08,0,0,0-.73-4.62A4.15,4.15,0,0,1,700.29,304.87Z" style="fill:#263238"></path><path d="M645.78,256.27s-3.26,45.9-1,51.54c0,0,30.49-1.65,41.38-2.13,10.69-.48,14.34-.83,14.34-.83l-2.17-49.63-2.51-27-13-7.09-23.45-.84c-7.36,3.17-14.52,5.44-17.16,7.45Z" style="fill:#5CA4E6"></path><path d="M688.35,277.38a9.82,9.82,0,0,1-.92,1.33c-.62.85-1.57,2-2.82,3.42a59.46,59.46,0,0,1-4.64,4.64,66.35,66.35,0,0,1-6.32,5,67,67,0,0,1-6.91,4.12,61.38,61.38,0,0,1-6,2.67c-1.75.66-3.19,1.13-4.2,1.4a8.57,8.57,0,0,1-1.57.38,11.21,11.21,0,0,1,1.51-.57c1-.33,2.4-.85,4.12-1.56s3.74-1.62,5.92-2.75a71.34,71.34,0,0,0,6.84-4.12,73.77,73.77,0,0,0,6.29-4.9c1.84-1.64,3.43-3.18,4.69-4.54s2.27-2.49,2.93-3.29A9.86,9.86,0,0,1,688.35,277.38Z" style="fill:#263238"></path><polygon points="644.89 249.15 697.46 245.66 698.43 257.16 645.47 260.93 645.78 256.27 644.89 249.15" style="fill:#f5f5f5"></polygon><g style="opacity:0.2"><path d="M659.35,220.31c4.61,4.44,12.78,9.44,19.27,7.95a6.6,6.6,0,0,0,3.87-1.83c1.21-1.22,1-3.69.31-5.28Z"></path></g><g style="opacity:0.2"><path d="M687,279.66c1-1.17-2.59-1.65-4-1.25a8.25,8.25,0,0,0-3.7,2.51,28.35,28.35,0,0,1-3.17,3.22,14.8,14.8,0,0,1-7.31,2.55,51.56,51.56,0,0,0-7.75,1.16,9.52,9.52,0,0,0-6.09,4.57c-1.13,2.35-.52,5.63,1.78,6.88C656.73,299.3,672.06,298.14,687,279.66Z"></path></g><path d="M653.76,222.59s2.13-11.81,13.75-13.26,15.83,4.41,16.32,5,3,4.34-1.6,6.77l-22.88-.82Z" style="fill:#455a64"></path><path d="M681.16,215.07a4.47,4.47,0,0,1-1.18.16,27.37,27.37,0,0,1-3.25,0c-1.37-.07-3-.23-4.78-.38a31.22,31.22,0,0,0-5.81,0,16.34,16.34,0,0,0-9.41,4.26,28.23,28.23,0,0,0-2.88,3.31,4.65,4.65,0,0,1,.56-1,14.18,14.18,0,0,1,2.06-2.52,16.11,16.11,0,0,1,9.61-4.52,29.62,29.62,0,0,1,5.91.07l4.77.49c1.35.12,2.45.16,3.21.18A5.59,5.59,0,0,1,681.16,215.07Z" style="fill:#263238"></path><path d="M681.1,219.2a9.09,9.09,0,0,1-2.47.59,28.85,28.85,0,0,1-12.17-.76,9.2,9.2,0,0,1-2.38-.9,18,18,0,0,1,2.47.54,37.83,37.83,0,0,0,6,.87,38.3,38.3,0,0,0,6-.11A18.78,18.78,0,0,1,681.1,219.2Z" style="fill:#263238"></path></g><g id="freepik--Floor--inject-119"><path d="M730.26,466c0,.15-159.38.26-355.94.26s-356-.11-356-.26,159.34-.26,356-.26S730.26,465.87,730.26,466Z" style="fill:#263238"></path></g></svg>